# xmcd
#
# Track frame offsets:
#	150
#	17346
#	39705
#	56895
#	69897
#	84396
#	99171
#	118137
#	132198
#	149748
#	164943
#	186036
#
# Disc length: 2746 seconds
# Revision: 0
# Processed by: cddbd v1.5.2PL0 Copyright (c) Steve Scherf et al.
# Submitted via: dBpowerAMP V12.0
#
DISCID=a80ab80c
DTITLE=Amanda Pearcy - Waitin' On Sunday
DYEAR=2009
DGENRE=Country
TTITLE0=Casino
TTITLE1=Haunted Man
TTITLE2=Guess The Sun's Comin' Up
TTITLE3=Paint By Numbers
TTITLE4=Servant's Entrance
TTITLE5=The Cruelty Of Memory
TTITLE6=Bring It On
TTITLE7=Fatherless Son
TTITLE8=The Strength Lies In The Proof
TTITLE9=Mother's Lament
TTITLE10=Indian Summers
TTITLE11=Waitin' On Sunday
EXTD=
EXTT0=
EXTT1=
EXTT2=
EXTT3=
EXTT4=
EXTT5=
EXTT6=
EXTT7=
EXTT8=
EXTT9=
EXTT10=
EXTT11=
PLAYORDER=
